<svg xmlns="http://www.w3.org/2000/svg" xmlns:xlink="http://www.w3.org/1999/xlink" width="371pt" height="132" viewBox="0 0 371 99"><clipPath id="a"><path transform="matrix(1 0 0 -1 -179 493)" d="M0 0h729v516H0z"/></clipPath><g clip-path="url(#a)"><path d="M-179-23h575.91v407.641H-179z" fill="#fff"/><clipPath id="b"><path transform="translate(-179 -23)" d="M182.254 26.07h273.371v18.566H182.254z"/></clipPath><g clip-path="url(#b)"><clipPath id="c"><path transform="translate(-179 -23)" d="M183.438 26.07h271c.652 0 1.183.532 1.183 1.184v16.195c0 .656-.531 1.188-1.183 1.188h-271a1.187 1.187 0 0 1-1.184-1.188V27.254c0-.652.531-1.184 1.184-1.184zm0 0"/></clipPath><g clip-path="url(#c)"><path d="M3.254 3.07h273.371v18.566H3.254z" fill="#fff"/></g></g><path d="M4.438 3.07h271c.652 0 1.183.532 1.183 1.184v16.195c0 .656-.531 1.188-1.183 1.188h-271a1.187 1.187 0 0 1-1.184-1.188V4.254c0-.652.531-1.184 1.184-1.184zm271 .395h-271a.792.792 0 0 0-.79.789v16.195a.79.79 0 0 0 .79.789h271a.787.787 0 0 0 .789-.789V4.254a.79.79 0 0 0-.789-.789zm0 0" fill="#d9d9d9"/><clipPath id="d"><path transform="translate(-179 -23)" d="M190 31.203h7V39.5h-7z"/></clipPath><g clip-path="url(#d)"><path d="M17.316 11.906h-.632v-2.07c0-.656-.528-1.188-1.184-1.188h-2.297c-.652 0-1.183.532-1.183 1.188v2.07h-.629a.297.297 0 0 0-.297.297v3.555c0 .164.133.297.297.297h5.925a.294.294 0 0 0 .293-.297v-3.555a.294.294 0 0 0-.293-.297zm-4.628-2.07c0-.289.23-.52.515-.52H15.5a.52.52 0 0 1 .52.52v2.07h-3.332zm4.257 5.555h-5.183v-2.817h5.183zm-2.851-1.289v.492c0 .039.031.074.074.074h.371a.077.077 0 0 0 .074-.074v-.492a.445.445 0 1 0-.519 0zm0 0" fill-opacity=".251"/></g><clipPath id="e"><path transform="translate(-179 -23)" d="M440.414 32h8.297v7h-8.297z"/></clipPath><g clip-path="url(#e)"><path d="M269.555 12.113c-.879-1.847-2.203-2.777-3.981-2.777-1.781 0-3.105.93-3.984 2.777a.568.568 0 0 0 0 .477c.879 1.851 2.203 2.781 3.984 2.781 1.778 0 3.102-.93 3.981-2.781a.568.568 0 0 0 0-.477zm-3.981 2.59c-1.496 0-2.59-.758-3.359-2.351.769-1.594 1.863-2.352 3.359-2.352 1.492 0 2.586.758 3.356 2.352-.77 1.593-1.864 2.351-3.356 2.351zm-.039-3.98a1.628 1.628 0 1 0 0 3.257c.899 0 1.629-.726 1.629-1.628a1.63 1.63 0 0 0-1.629-1.629zm0 2.668a1.035 1.035 0 0 1-1.035-1.039 1.038 1.038 0 1 1 1.035 1.039zm0 0" fill-opacity=".451"/></g><clipPath id="f"><path transform="translate(-179 -23)" d="M199.832 28.836h238.215v13.035H199.832z"/></clipPath><g clip-path="url(#f)"><clipPath id="g"><path transform="translate(-179 -23)" d="M201.016 28.836h235.843c.657 0 1.188.531 1.188 1.184v10.664c0 .656-.531 1.187-1.188 1.187H201.016a1.186 1.186 0 0 1-1.184-1.187V30.02c0-.653.531-1.184 1.184-1.184zm0 0"/></clipPath><g clip-path="url(#g)"><path d="M20.832 5.836h238.215v13.035H20.832z" fill="#fff"/></g></g><symbol id="h"><path d="M.082.302H.08V0H0v.73h.08V.642h.002c.04.066.097.1.173.1a.183.183 0 0 0 .15-.068.277.277 0 0 0 .055-.18.31.31 0 0 0-.061-.2.203.203 0 0 0-.167-.076.167.167 0 0 0-.15.084M.08.504v-.07A.15.15 0 0 1 .12.33.135.135 0 0 1 .223.286C.27.286.309.304.336.34a.254.254 0 0 1 .042.155c0 .056-.013.1-.039.131a.128.128 0 0 1-.104.047.142.142 0 0 1-.112-.049A.177.177 0 0 1 .08.504z"/></symbol><symbol id="i"><path d="M.484.297H.482C.458.219.412.18.342.18A.133.133 0 0 0 .234.23a.203.203 0 0 0-.04.133.29.29 0 0 0 .056.183.179.179 0 0 0 .148.073A.11.11 0 0 0 .46.601.08.08 0 0 0 .496.556h.002l.005.056h.061L.541.338c0-.067.02-.101.058-.101.035 0 .064.019.088.057a.279.279 0 0 1 .035.148c0 .09-.029.162-.085.22A.318.318 0 0 1 .4.745a.314.314 0 0 1-.24-.101A.358.358 0 0 1 .068.39c0-.1.03-.181.09-.243A.326.326 0 0 1 .4.057c.08 0 .149.013.206.04v-.06A.538.538 0 0 0 .395 0a.391.391 0 0 0-.287.107.378.378 0 0 0-.108.28c0 .12.038.219.114.297a.389.389 0 0 0 .291.118C.516.802.608.769.68.703A.33.33 0 0 0 .79.446.304.304 0 0 0 .73.255.17.17 0 0 0 .591.18C.522.18.486.219.485.297M.397.563C.357.563.324.542.299.504A.259.259 0 0 1 .262.362C.262.323.27.293.287.27A.08.08 0 0 1 .354.238c.04 0 .072.02.096.06.023.04.035.094.035.16 0 .07-.03.104-.088.104z"/></symbol><symbol id="j"><path d="M0 .03v.086A.237.237 0 0 1 .144.067c.07 0 .106.024.106.07a.059.059 0 0 1-.01.034.084.084 0 0 1-.024.025.17.17 0 0 1-.036.02.642.642 0 0 0-.103.044.193.193 0 0 0-.042.03.12.12 0 0 0-.026.039.14.14 0 0 0 .008.112.14.14 0 0 0 .043.045.197.197 0 0 0 .061.028A.287.287 0 0 0 .31.501V.42A.226.226 0 0 1 .14.45.098.098 0 0 1 .11.438.07.07 0 0 1 .09.414.059.059 0 0 1 .083.386.07.07 0 0 1 .09.353.075.075 0 0 1 .11.33.159.159 0 0 1 .145.31L.188.293a.58.58 0 0 0 .06-.026.194.194 0 0 0 .045-.03.113.113 0 0 0 .028-.04.123.123 0 0 0 .01-.051A.122.122 0 0 0 .316.08.138.138 0 0 0 .27.036.2.2 0 0 0 .208.009.311.311 0 0 0 .134 0 .284.284 0 0 0 0 .03z"/></symbol><symbol id="k"><path d="M.7.5.55 0H.465L.363.358a.233.233 0 0 0-.008.046H.354A.219.219 0 0 0 .344.36L.23 0h-.08L0 .5h.084L.187.124A.226.226 0 0 0 .195.079h.004a.21.21 0 0 0 .009.046L.322.5h.074L.499.123A.27.27 0 0 0 .506.078H.51c0 .013.004.028.009.045L.62.5H.7z"/></symbol><symbol id="l"><path d="M.456.365A.678.678 0 0 0 .44.21.358.358 0 0 0 .394.095.207.207 0 0 0 .32.024.202.202 0 0 0 .221 0a.191.191 0 0 0-.094.023.2.2 0 0 0-.07.068A.343.343 0 0 0 .016.2a.776.776 0 0 0 0 .31c.01.047.026.086.046.118A.2.2 0 0 0 .134.7c.03.016.064.024.102.024.147 0 .22-.12.22-.359M.374.357c0 .2-.047.3-.142.3-.1 0-.15-.102-.15-.305 0-.19.049-.284.147-.284.097 0 .145.097.145.29z"/></symbol><symbol id="m"><path d="M.26.419A.098.098 0 0 1 .2.435C.166.435.137.42.114.387A.225.225 0 0 1 .08.255V0H0v.5h.08V.397h.002a.173.173 0 0 0 .052.082c.024.02.05.03.079.03A.13.13 0 0 0 .26.502V.419z"/></symbol><symbol id="n"><path d="M.46.012H.38v.085H.38A.185.185 0 0 0 .207 0a.188.188 0 0 0-.15.067A.277.277 0 0 0 0 .25a.3.3 0 0 0 .063.199c.041.05.097.074.166.074s.119-.027.15-.08H.38v.309h.08v-.74M.38.238v.074c0 .04-.013.074-.04.102a.134.134 0 0 1-.102.042.138.138 0 0 1-.115-.054.235.235 0 0 1-.042-.148c0-.058.013-.103.04-.137A.133.133 0 0 1 .23.067c.045 0 .081.016.109.049A.18.18 0 0 1 .38.238z"/></symbol><symbol id="o"><path d="M.408.7V.238h.09V.165h-.09V0H.33v.165H0v.069a2.845 2.845 0 0 1 .182.23c.029.04.055.08.08.12.024.04.044.08.06.116h.086M.09.238h.24V.58A2.374 2.374 0 0 0 .09.238z"/></symbol><symbol id="p"><path d="M.436.242H.083a.187.187 0 0 1 .045-.13.155.155 0 0 1 .118-.045c.056 0 .108.019.155.056V.048A.29.29 0 0 0 .227 0a.212.212 0 0 0-.166.068A.28.28 0 0 0 0 .26C0 .338.022.4.066.45.11.499.165.523.23.523A.188.188 0 0 0 .382.46.265.265 0 0 0 .436.284V.242M.354.31A.162.162 0 0 1 .32.417a.113.113 0 0 1-.091.04.13.13 0 0 1-.096-.041A.184.184 0 0 1 .084.31h.27z"/></symbol><symbol id="q"><path d="M.467.5.268 0H.19L0 .5h.088L.215.137a.326.326 0 0 0 .017-.07h.002A.33.33 0 0 0 .25.135L.383.5h.084z"/></symbol><use xlink:href="#h" transform="matrix(8.295 0 0 -8.295 21.503 17.618)" fill-opacity=".851"/><use xlink:href="#i" transform="matrix(8.295 0 0 -8.295 26.396 16.471)" fill-opacity=".851"/><use xlink:href="#j" transform="matrix(8.295 0 0 -8.295 34.043 15.807)" fill-opacity=".851"/><use xlink:href="#j" transform="matrix(8.295 0 0 -8.295 37.56 15.807)" fill-opacity=".851"/><use xlink:href="#k" transform="matrix(8.295 0 0 -8.295 40.753 15.71)" fill-opacity=".851"/><use xlink:href="#l" transform="matrix(8.295 0 0 -8.295 46.993 15.811)" fill-opacity=".851"/><use xlink:href="#m" transform="matrix(8.295 0 0 -8.295 51.788 15.71)" fill-opacity=".851"/><use xlink:href="#n" transform="matrix(8.295 0 0 -8.295 54.383 15.807)" fill-opacity=".851"/><use xlink:href="#o" transform="matrix(8.295 0 0 -8.295 58.928 15.71)" fill-opacity=".851"/><use xlink:href="#p" transform="matrix(8.295 0 0 -8.295 63.731 15.807)" fill-opacity=".851"/><use xlink:href="#q" transform="matrix(8.295 0 0 -8.295 67.73 15.71)" fill-opacity=".851"/><use xlink:href="#p" transform="matrix(8.295 0 0 -8.295 72.034 15.807)" fill-opacity=".851"/><use xlink:href="#m" transform="matrix(8.295 0 0 -8.295 76.648 15.71)" fill-opacity=".851"/><clipPath id="r"><path transform="translate(-179 -23)" d="M455.621 27.254h91.117v18.961h-91.117z"/></clipPath><g clip-path="url(#r)"><clipPath id="s"><path transform="translate(-179 -23)" d="M455.434 27.254h91.64v18.961h-91.64zm1.187-1.184h88.875c.652 0 1.184.532 1.184 1.184v16.59c0 .656-.532 1.187-1.184 1.187h-88.875a1.186 1.186 0 0 1-1.187-1.187v-16.59c0-.652.531-1.184 1.187-1.184zm0 0" fill-rule="evenodd"/></clipPath><g clip-path="url(#s)"><path d="M277.809 4.254h88.746c.652 0 1.183.531 1.183 1.187v16.59c0 .653-.531 1.184-1.183 1.184h-88.746a1.186 1.186 0 0 1-1.188-1.184V5.441c0-.656.531-1.187 1.188-1.187zm0 0" fill-opacity=".043"/></g></g><clipPath id="t"><path transform="translate(-179 -23)" d="M455.621 26.07h91.117v18.961h-91.117z"/></clipPath><g clip-path="url(#t)"><clipPath id="u"><path transform="translate(-179 -23)" d="M456.809 26.07h88.746c.652 0 1.183.532 1.183 1.184v16.59c0 .656-.531 1.187-1.183 1.187h-88.746a1.187 1.187 0 0 1-1.188-1.187v-16.59c0-.652.531-1.184 1.188-1.184zm0 0"/></clipPath><g clip-path="url(#u)"><path d="M276.621 3.07h91.117v18.961h-91.117z" fill="#1890ff"/></g></g><path d="M277.809 3.07h88.746c.652 0 1.183.532 1.183 1.184v16.59c0 .656-.531 1.187-1.183 1.187h-88.746a1.187 1.187 0 0 1-1.188-1.187V4.254c0-.652.531-1.184 1.188-1.184zm88.746.395h-88.746a.789.789 0 0 0-.789.789v16.59a.79.79 0 0 0 .789.793h88.746a.79.79 0 0 0 .789-.793V4.254a.79.79 0 0 0-.789-.789zm0 0" fill="#1890ff"/><clipPath id="v"><path transform="translate(-179 -23)" d="M484 31.648h7.895v8.297H484z"/></clipPath><g clip-path="url(#v)"><path d="m311.914 9.582-3.148-1.074a.5.5 0 0 0-.278 0l-3.144 1.074a.216.216 0 0 0-.141.195v4.465c0 .082.051.188.117.238l3.192 2.489a.2.2 0 0 0 .113.039.203.203 0 0 0 .117-.039l3.192-2.489a.326.326 0 0 0 .117-.238V9.777a.212.212 0 0 0-.137-.195zm-.527 4.484-2.758 2.149-2.762-2.149v-3.961l2.762-.941 2.758.941zm-3.77-1.164-.719.719c-.027.027-.027.074 0 .106l.317.312c.027.031.074.031.105 0l.715-.715a1.336 1.336 0 0 0 1.656-2.074 1.33 1.33 0 0 0-1.886 0 1.332 1.332 0 0 0-.188 1.652zm.606-1.234a.74.74 0 0 1 1.047 0 .74.74 0 0 1 0 1.051.74.74 0 1 1-1.047-1.051zm0 0" fill="#fff"/></g><symbol id="w"><path d="M.522.041A.41.41 0 0 0 .33 0C.23 0 .15.032.09.096A.355.355 0 0 0 0 .35C0 .46.034.55.101.62a.343.343 0 0 0 .256.104c.067 0 .122-.01.165-.03V.608A.335.335 0 0 1 .356.65.256.256 0 0 1 .161.57.304.304 0 0 1 .086.354a.29.29 0 0 1 .07-.205A.24.24 0 0 1 .34.074C.41.074.47.089.522.12V.04z"/></symbol><symbol id="x"><path d="M.415 0h-.08v.288c0 .104-.039.156-.116.156A.126.126 0 0 1 .12.4.167.167 0 0 1 .08.283V0H0v.74h.08V.417h.002a.182.182 0 0 0 .164.095C.36.512.415.444.415.308V0z"/></symbol><symbol id="y"><path d="M.375.035A.26.26 0 0 0 .238 0a.228.228 0 0 0-.173.07A.254.254 0 0 0 0 .25c0 .082.024.148.07.198.048.05.111.075.19.075A.263.263 0 0 0 .376.5V.417a.204.204 0 0 1-.12.04A.161.161 0 0 1 .132.4.208.208 0 0 1 .082.257.2.2 0 0 1 .128.118a.16.16 0 0 1 .124-.05.2.2 0 0 1 .123.043V.035z"/></symbol><symbol id="z"><path d="M.415 0H.303L.082.24H.08V0H0v.74h.08V.271h.002L.292.5h.105L.165.259.415 0z"/></symbol><use xlink:href="#w" transform="matrix(8.295 0 0 -8.295 318.014 15.412)" fill-opacity=".122"/><use xlink:href="#x" transform="matrix(8.295 0 0 -8.295 323.44 15.315)" fill-opacity=".122"/><use xlink:href="#p" transform="matrix(8.295 0 0 -8.295 327.844 15.412)" fill-opacity=".122"/><use xlink:href="#y" transform="matrix(8.295 0 0 -8.295 332.174 15.412)" fill-opacity=".122"/><use xlink:href="#z" transform="matrix(8.295 0 0 -8.295 336.281 15.315)" fill-opacity=".122"/><use xlink:href="#w" transform="matrix(8.295 0 0 -8.295 318.014 16.005)" fill="#fff"/><use xlink:href="#x" transform="matrix(8.295 0 0 -8.295 323.44 15.908)" fill="#fff"/><use xlink:href="#p" transform="matrix(8.295 0 0 -8.295 327.844 16.005)" fill="#fff"/><use xlink:href="#y" transform="matrix(8.295 0 0 -8.295 332.174 16.005)" fill="#fff"/><use xlink:href="#z" transform="matrix(8.295 0 0 -8.295 336.281 15.908)" fill="#fff"/><clipPath id="A"><path transform="translate(-179 -23)" d="M182.242 45.031h364.496v27.285H182.242z"/></clipPath><g clip-path="url(#A)"><clipPath id="B"><path transform="translate(-179 -23)" d="M183.43 45.031h362.125c.652 0 1.183.531 1.183 1.184v24.914c0 .656-.531 1.187-1.183 1.187H183.43a1.187 1.187 0 0 1-1.188-1.187V46.215c0-.653.531-1.184 1.188-1.184zm0 0"/></clipPath><g clip-path="url(#B)"><path d="M3.242 22.031h364.496v27.285H3.242z" fill="#fff"/></g></g><path d="M4.43 22.031h362.125c.652 0 1.183.531 1.183 1.184v24.914c0 .656-.531 1.187-1.183 1.187H4.43a1.187 1.187 0 0 1-1.188-1.187V23.215c0-.653.531-1.184 1.188-1.184zm362.125.395H4.43a.79.79 0 0 0-.793.789v24.914a.79.79 0 0 0 .793.789h362.125a.787.787 0 0 0 .789-.789V23.215a.787.787 0 0 0-.789-.789zm0 0" fill="#f0f0f0"/><clipPath id="C"><path transform="translate(-179 -23)" d="M364.191 45.426h.59v26.465h-.59zM182.637 71.891h182.144v.621H182.637zm0 0"/></clipPath><g clip-path="url(#C)"><path d="M3.637 22.426h182.145v27.086H3.637z" fill="#f0f0f0" fill-rule="evenodd"/></g><clipPath id="D"><path transform="translate(-179 -23)" d="M182.047 45.426h.047v26.465h-.047zm0 26.465h182.144v.621H182.047zm0 0"/></clipPath><g clip-path="url(#D)"><path d="M3.047 22.426h182.145v27.086H3.047z" fill="#f0f0f0" fill-rule="evenodd"/></g><clipPath id="E"><path transform="translate(-179 -23)" d="M182.637 44.832h182.144v.199H182.637zm181.554.199h.59v26.86h-.59zm-181.554 26.86h182.144v.027H182.637zm0 0"/></clipPath><g clip-path="url(#E)"><path d="M3.637 21.832h182.145v27.086H3.637z" fill="#f0f0f0" fill-rule="evenodd"/></g><clipPath id="F"><path transform="translate(-179 -23)" d="M182.094 45.031H364V71.89H182.094z"/></clipPath><g clip-path="url(#F)"><path d="M3 22h182v27H3zm182 0H3v28h182zm0 0" fill="#f0f0f0" fill-rule="evenodd"/></g><clipPath id="G"><path transform="translate(-179 -23)" d="M182.094 45.031h182.094V71.89H182.094z"/></clipPath><g clip-path="url(#G)"><path d="M3 22h182v27H3zm183 0H3v27h183zm0 0" fill="#f0f0f0" fill-rule="evenodd"/><use xlink:href="#h" transform="matrix(14.22 0 0 -14.22 62.629 44.369)" fill="#3f8600"/><use xlink:href="#i" transform="matrix(14.22 0 0 -14.22 71.017 42.404)" fill="#3f8600"/><use xlink:href="#j" transform="matrix(14.22 0 0 -14.22 84.125 41.265)" fill="#3f8600"/><use xlink:href="#j" transform="matrix(14.22 0 0 -14.22 90.155 41.265)" fill="#3f8600"/><use xlink:href="#k" transform="matrix(14.22 0 0 -14.22 95.628 41.099)" fill="#3f8600"/><use xlink:href="#l" transform="matrix(14.22 0 0 -14.22 106.326 41.272)" fill="#3f8600"/><use xlink:href="#m" transform="matrix(14.22 0 0 -14.22 114.546 41.099)" fill="#3f8600"/><use xlink:href="#n" transform="matrix(14.22 0 0 -14.22 118.994 41.265)" fill="#3f8600"/></g><clipPath id="H"><path transform="translate(-179 -23)" d="M546.285 45.426h.641v26.465h-.641zM364.781 71.891h182.145v.621H364.781zm0 0"/></clipPath><g clip-path="url(#H)"><path d="M185.781 22.426h182.145v27.086H185.781z" fill="#f0f0f0" fill-rule="evenodd"/></g><clipPath id="I"><path transform="translate(-179 -23)" d="M546.285 45.426h.051v26.465h-.051zM364.191 71.891h182.145v.621H364.191zm0 0"/></clipPath><g clip-path="url(#I)"><path d="M185.191 22.426h182.145v27.086H185.191z" fill="#f0f0f0" fill-rule="evenodd"/></g><clipPath id="J"><path transform="translate(-179 -23)" d="M364.781 44.832h182.145v.199H364.781zm181.504.199h.641v26.86h-.641zm-181.504 26.86h182.145v.027H364.781zm0 0"/></clipPath><g clip-path="url(#J)"><path d="M185.781 21.832h182.145v27.086H185.781z" fill="#f0f0f0" fill-rule="evenodd"/></g><clipPath id="K"><path transform="translate(-179 -23)" d="M364.191 45.031H546V71.89H364.191z"/></clipPath><g clip-path="url(#K)"><path d="M185 22h182v27H185zm182 0H185v28h182zm0 0" fill="#f0f0f0" fill-rule="evenodd"/></g><clipPath id="L"><path transform="translate(-179 -23)" d="M364.191 45.031h182.094V71.89H364.191z"/></clipPath><g clip-path="url(#L)"><path d="M185 22h182v27H185zm183 0H186v27h182zm0 0" fill="#f0f0f0" fill-rule="evenodd"/><use xlink:href="#o" transform="matrix(14.22 0 0 -14.22 259.211 41.099)" fill="#cf1322"/><use xlink:href="#p" transform="matrix(14.22 0 0 -14.22 267.445 41.265)" fill="#cf1322"/><use xlink:href="#q" transform="matrix(14.22 0 0 -14.22 274.299 41.099)" fill="#cf1322"/><use xlink:href="#p" transform="matrix(14.22 0 0 -14.22 281.68 41.265)" fill="#cf1322"/><use xlink:href="#m" transform="matrix(14.22 0 0 -14.22 289.589 41.099)" fill="#cf1322"/></g><path d="M4.43 49.316h362.125c.652 0 1.183.528 1.183 1.184v43.844c0 .656-.531 1.187-1.183 1.187H4.43a1.187 1.187 0 0 1-1.188-1.187V50.5c0-.656.531-1.184 1.188-1.184zm362.125.395H4.43a.79.79 0 0 0-.793.789v43.844a.79.79 0 0 0 .793.789h362.125a.787.787 0 0 0 .789-.789V50.5a.787.787 0 0 0-.789-.789zm0 0" fill="#f0f0f0"/><clipPath id="M"><path transform="translate(-179 -23)" d="M182.637 72.711H273V96h-90.363z"/></clipPath><g clip-path="url(#M)"><clipPath id="N"><path transform="translate(-179 -23)" d="M183.43 72.711h362.125c.437 0 .789.351.789.789v43.844a.787.787 0 0 1-.789.789H183.43a.79.79 0 0 1-.793-.789V73.5a.79.79 0 0 1 .793-.789zm0 0"/></clipPath><g clip-path="url(#N)"><path d="M3.637 49.711h89.754v22.91H3.637z" fill="#fafafa"/></g></g><clipPath id="O"><path transform="translate(-179 -23)" d="M338 72.711h51V96h-51z"/></clipPath><g clip-path="url(#O)"><clipPath id="P"><path transform="translate(-179 -23)" d="M183.43 72.711h362.125c.437 0 .789.351.789.789v43.844a.787.787 0 0 1-.789.789H183.43a.79.79 0 0 1-.793-.789V73.5a.79.79 0 0 1 .793-.789zm0 0"/></clipPath><g clip-path="url(#P)"><path d="M159.457 49.711h50.461v22.91h-50.461z" fill="#fafafa"/></g></g><clipPath id="Q"><path transform="translate(-179 -23)" d="M433 72.711h61V96h-61z"/></clipPath><g clip-path="url(#Q)"><clipPath id="R"><path transform="translate(-179 -23)" d="M183.43 72.711h362.125c.437 0 .789.351.789.789v43.844a.787.787 0 0 1-.789.789H183.43a.79.79 0 0 1-.793-.789V73.5a.79.79 0 0 1 .793-.789zm0 0"/></clipPath><g clip-path="url(#R)"><path d="M254.641 49.711h60.355v22.91h-60.355z" fill="#fafafa"/></g></g><clipPath id="S"><path transform="translate(-179 -23)" d="M182.637 95H273v23.137h-90.363z"/></clipPath><g clip-path="url(#S)"><clipPath id="T"><path transform="translate(-179 -23)" d="M183.43 72.711h362.125c.437 0 .789.351.789.789v43.844a.787.787 0 0 1-.789.789H183.43a.79.79 0 0 1-.793-.789V73.5a.79.79 0 0 1 .793-.789zm0 0"/></clipPath><g clip-path="url(#T)"><path d="M3.637 72.621h89.754v22.516H3.637z" fill="#fafafa"/></g></g><clipPath id="U"><path transform="translate(-179 -23)" d="M338 72.711h1V96h-1z"/></clipPath><g clip-path="url(#U)"><clipPath id="V"><path transform="translate(-179 -23)" d="M183.43 72.711h362.125c.437 0 .789.351.789.789v43.844a.787.787 0 0 1-.789.789H183.43a.79.79 0 0 1-.793-.789V73.5a.79.79 0 0 1 .793-.789zm0 0"/></clipPath><g clip-path="url(#V)"><path d="M159.062 49.711h.395v22.516h-.395z" fill="#f0f0f0"/></g></g><clipPath id="W"><path transform="translate(-179 -23)" d="M388 72.711h1V96h-1z"/></clipPath><g clip-path="url(#W)"><clipPath id="X"><path transform="translate(-179 -23)" d="M183.43 72.711h362.125c.437 0 .789.351.789.789v43.844a.787.787 0 0 1-.789.789H183.43a.79.79 0 0 1-.793-.789V73.5a.79.79 0 0 1 .793-.789zm0 0"/></clipPath><g clip-path="url(#X)"><path d="M209.523 49.711h.395v22.516h-.395z" fill="#f0f0f0"/></g></g><clipPath id="Y"><path transform="translate(-179 -23)" d="M433 72.711h1V96h-1z"/></clipPath><g clip-path="url(#Y)"><clipPath id="Z"><path transform="translate(-179 -23)" d="M183.43 72.711h362.125c.437 0 .789.351.789.789v43.844a.787.787 0 0 1-.789.789H183.43a.79.79 0 0 1-.793-.789V73.5a.79.79 0 0 1 .793-.789zm0 0"/></clipPath><g clip-path="url(#Z)"><path d="M254.246 49.711h.395v22.516h-.395z" fill="#f0f0f0"/></g></g><clipPath id="aa"><path transform="translate(-179 -23)" d="M493 72.711h1V96h-1z"/></clipPath><g clip-path="url(#aa)"><clipPath id="ab"><path transform="translate(-179 -23)" d="M183.43 72.711h362.125c.437 0 .789.351.789.789v43.844a.787.787 0 0 1-.789.789H183.43a.79.79 0 0 1-.793-.789V73.5a.79.79 0 0 1 .793-.789zm0 0"/></clipPath><g clip-path="url(#ab)"><path d="M314.602 49.711h.395v22.516h-.395z" fill="#f0f0f0"/></g></g><clipPath id="ac"><path transform="translate(-179 -23)" d="M271 72.711h2v45.426h-2z"/></clipPath><g clip-path="url(#ac)"><clipPath id="ad"><path transform="translate(-179 -23)" d="M183.43 72.711h362.125c.437 0 .789.351.789.789v43.844a.787.787 0 0 1-.789.789H183.43a.79.79 0 0 1-.793-.789V73.5a.79.79 0 0 1 .793-.789zm0 0"/></clipPath><g clip-path="url(#ad)"><path d="M92.996 49.711h.395v45.426h-.395z" fill="#f0f0f0"/></g></g><clipPath id="ae"><path transform="translate(-179 -23)" d="M182.637 95H272v1h-89.363z"/></clipPath><g clip-path="url(#ae)"><clipPath id="af"><path transform="translate(-179 -23)" d="M183.43 72.711h362.125c.437 0 .789.351.789.789v43.844a.787.787 0 0 1-.789.789H183.43a.79.79 0 0 1-.793-.789V73.5a.79.79 0 0 1 .793-.789zm0 0"/></clipPath><g clip-path="url(#af)"><path d="M3.637 72.227h89.359v.395H3.637z" fill="#f0f0f0"/></g></g><clipPath id="ag"><path transform="translate(-179 -23)" d="M272 95h274.344v1H272z"/></clipPath><g clip-path="url(#ag)"><clipPath id="ah"><path transform="translate(-179 -23)" d="M183.43 72.711h362.125c.437 0 .789.351.789.789v43.844a.787.787 0 0 1-.789.789H183.43a.79.79 0 0 1-.793-.789V73.5a.79.79 0 0 1 .793-.789zm0 0"/></clipPath><g clip-path="url(#ah)"><path d="M93.391 72.227h273.953v.395H93.391z" fill="#f0f0f0"/></g></g><clipPath id="ai"><path transform="translate(-179 -23)" d="M192 81h21v7h-21z"/></clipPath><g clip-path="url(#ai)"><clipPath id="aj"><path transform="translate(-179 -23)" d="M183.43 72.711h362.125c.437 0 .789.351.789.789v43.844a.787.787 0 0 1-.789.789H183.43a.79.79 0 0 1-.793-.789V73.5a.79.79 0 0 1 .793-.789zm0 0"/></clipPath><g clip-path="url(#aj)"><symbol id="ak"><path d="M0 .04v.097A.19.19 0 0 1 .04.11.357.357 0 0 1 .188.074c.05 0 .088.009.113.028a.095.095 0 0 1 .037.08.093.093 0 0 1-.012.05.134.134 0 0 1-.034.038.314.314 0 0 1-.053.033 2.74 2.74 0 0 1-.064.034 1.094 1.094 0 0 0-.069.038.296.296 0 0 0-.055.042.18.18 0 0 0-.037.051.165.165 0 0 0-.013.069c0 .032.007.06.021.083a.18.18 0 0 0 .055.058.25.25 0 0 0 .078.034.36.36 0 0 0 .09.012c.068 0 .118-.009.15-.025V.606a.273.273 0 0 1-.16.043.251.251 0 0 1-.053-.005.148.148 0 0 1-.048-.019A.106.106 0 0 1 .1.593a.087.087 0 0 1-.013-.05c0-.017.003-.032.01-.045a.117.117 0 0 1 .03-.036A.299.299 0 0 1 .173.43L.239.397A.92.92 0 0 0 .31.358.326.326 0 0 0 .37.313.198.198 0 0 0 .41.258a.153.153 0 0 0 .014-.07A.164.164 0 0 0 .35.042.232.232 0 0 0 .27.01.425.425 0 0 0 0 .04z"/></symbol><symbol id="al"><path d="M.243 0a.233.233 0 0 0-.177.07A.261.261 0 0 0 0 .256c0 .084.023.15.069.197.046.047.108.07.186.07A.223.223 0 0 0 .429.455.272.272 0 0 0 .492.264.269.269 0 0 0 .424.072.237.237 0 0 0 .244 0m.005.456A.152.152 0 0 1 .127.403.215.215 0 0 1 .082.26c0-.06.015-.106.045-.14A.154.154 0 0 1 .25.067c.052 0 .091.017.12.05A.217.217 0 0 1 .41.262C.41.323.396.37.368.405A.145.145 0 0 1 .25.456z"/></symbol><use xlink:href="#ak" transform="matrix(8.295 0 0 -8.295 13.608 64.422)" fill-opacity=".851"/><use xlink:href="#y" transform="matrix(8.295 0 0 -8.295 17.912 64.422)" fill-opacity=".851"/><use xlink:href="#al" transform="matrix(8.295 0 0 -8.295 21.736 64.422)" fill-opacity=".851"/><use xlink:href="#m" transform="matrix(8.295 0 0 -8.295 26.872 64.325)" fill-opacity=".851"/><use xlink:href="#p" transform="matrix(8.295 0 0 -8.295 29.467 64.422)" fill-opacity=".851"/></g></g><clipPath id="am"><path transform="translate(-179 -23)" d="M281 82h3v6h-3z"/></clipPath><g clip-path="url(#am)"><clipPath id="an"><path transform="translate(-179 -23)" d="M183.43 72.711h362.125c.437 0 .789.351.789.789v43.844a.787.787 0 0 1-.789.789H183.43a.79.79 0 0 1-.793-.789V73.5a.79.79 0 0 1 .793-.789zm0 0"/></clipPath><g clip-path="url(#an)"><path d="M102.871 59.586h1.184v4.738h-1.184z" fill="#f1c40f"/></g></g><clipPath id="ao"><path transform="translate(-179 -23)" d="M284 82h2v6h-2z"/></clipPath><g clip-path="url(#ao)"><clipPath id="ap"><path transform="translate(-179 -23)" d="M183.43 72.711h362.125c.437 0 .789.351.789.789v43.844a.787.787 0 0 1-.789.789H183.43a.79.79 0 0 1-.793-.789V73.5a.79.79 0 0 1 .793-.789zm0 0"/></clipPath><g clip-path="url(#ap)"><path d="M105.242 59.586h1.184v4.738h-1.184z" fill="#f1c40f"/></g></g><clipPath id="aq"><path transform="translate(-179 -23)" d="M286 82h2v6h-2z"/></clipPath><g clip-path="url(#aq)"><clipPath id="ar"><path transform="translate(-179 -23)" d="M183.43 72.711h362.125c.437 0 .789.351.789.789v43.844a.787.787 0 0 1-.789.789H183.43a.79.79 0 0 1-.793-.789V73.5a.79.79 0 0 1 .793-.789zm0 0"/></clipPath><g clip-path="url(#ar)"><path d="M107.613 59.586h1.184v4.738h-1.184z" fill="#f1c40f"/></g></g><clipPath id="as"><path transform="translate(-179 -23)" d="M288 82h3v6h-3z"/></clipPath><g clip-path="url(#as)"><clipPath id="at"><path transform="translate(-179 -23)" d="M183.43 72.711h362.125c.437 0 .789.351.789.789v43.844a.787.787 0 0 1-.789.789H183.43a.79.79 0 0 1-.793-.789V73.5a.79.79 0 0 1 .793-.789zm0 0"/></clipPath><g clip-path="url(#at)"><path d="M109.98 59.586h1.184v4.738h-1.184z" fill="#f1c40f"/></g></g><clipPath id="au"><path transform="translate(-179 -23)" d="M291 82h2v6h-2z"/></clipPath><g clip-path="url(#au)"><clipPath id="av"><path transform="translate(-179 -23)" d="M183.43 72.711h362.125c.437 0 .789.351.789.789v43.844a.787.787 0 0 1-.789.789H183.43a.79.79 0 0 1-.793-.789V73.5a.79.79 0 0 1 .793-.789zm0 0"/></clipPath><g clip-path="url(#av)"><path d="M112.352 59.586h1.184v4.738h-1.184z" fill="#f3f3f3"/></g></g><clipPath id="aw"><path transform="translate(-179 -23)" d="M293 82h2v6h-2z"/></clipPath><g clip-path="url(#aw)"><clipPath id="ax"><path transform="translate(-179 -23)" d="M183.43 72.711h362.125c.437 0 .789.351.789.789v43.844a.787.787 0 0 1-.789.789H183.43a.79.79 0 0 1-.793-.789V73.5a.79.79 0 0 1 .793-.789zm0 0"/></clipPath><g clip-path="url(#ax)"><path d="M114.723 59.586h1.184v4.738h-1.184z" fill="#f3f3f3"/></g></g><clipPath id="ay"><path transform="translate(-179 -23)" d="M296 81h31v7h-31z"/></clipPath><g clip-path="url(#ay)"><clipPath id="az"><path transform="translate(-179 -23)" d="M183.43 72.711h362.125c.437 0 .789.351.789.789v43.844a.787.787 0 0 1-.789.789H183.43a.79.79 0 0 1-.793-.789V73.5a.79.79 0 0 1 .793-.789zm0 0"/></clipPath><g clip-path="url(#az)"><symbol id="aA"><path d="M.714 0H.632v.47c0 .037.003.082.007.136H.637a.436.436 0 0 0-.02-.068L.376 0h-.04L.098.534a.419.419 0 0 0-.02.072H.074C.078.578.08.532.08.469V0H0v.7h.108L.323.212A.625.625 0 0 0 .355.128h.003l.034.086.22.486h.102V0z"/></symbol><symbol id="aB"><path d="M.052.627A.05.05 0 0 0 0 .679a.05.05 0 0 0 .015.037.05.05 0 0 0 .037.015.05.05 0 0 0 .037-.015.049.049 0 0 0 .015-.037A.05.05 0 0 0 .09.642.05.05 0 0 0 .052.627M.09 0H.01v.5h.08V0z"/></symbol><symbol id="aC"><path d="M.415.012h-.08V.09H.333A.164.164 0 0 0 .179 0C.059 0 0 .071 0 .213v.299h.08V.226C.08.12.12.067.2.067c.04 0 .072.015.097.043a.166.166 0 0 1 .038.114v.288h.08v-.5z"/></symbol><symbol id="aD"><path d="M.71 0H.63v.287C.63.342.62.382.604.407.587.432.558.444.518.444A.107.107 0 0 1 .431.397.18.18 0 0 1 .395.285V0h-.08v.297C.315.395.277.444.2.444A.105.105 0 0 1 .114.4.182.182 0 0 1 .08.285V0H0v.5h.08V.42h.002a.17.17 0 0 0 .155.092A.144.144 0 0 0 .38.408a.178.178 0 0 0 .166.104C.655.512.71.444.71.308V0z"/></symbol><use xlink:href="#aA" transform="matrix(8.295 0 0 -8.295 117.853 64.325)" fill-opacity=".851"/><use xlink:href="#p" transform="matrix(8.295 0 0 -8.295 124.921 64.422)" fill-opacity=".851"/><use xlink:href="#n" transform="matrix(8.295 0 0 -8.295 129.251 64.422)" fill-opacity=".851"/><use xlink:href="#aB" transform="matrix(8.295 0 0 -8.295 134.323 64.325)" fill-opacity=".851"/><use xlink:href="#aC" transform="matrix(8.295 0 0 -8.295 136.33 64.422)" fill-opacity=".851"/><use xlink:href="#aD" transform="matrix(8.295 0 0 -8.295 141.106 64.325)" fill-opacity=".851"/></g></g><clipPath id="aE"><path transform="translate(-179 -23)" d="M348 81h30v7h-30z"/></clipPath><g clip-path="url(#aE)"><clipPath id="aF"><path transform="translate(-179 -23)" d="M183.43 72.711h362.125c.437 0 .789.351.789.789v43.844a.787.787 0 0 1-.789.789H183.43a.79.79 0 0 1-.793-.789V73.5a.79.79 0 0 1 .793-.789zm0 0"/></clipPath><g clip-path="url(#aF)"><symbol id="aG"><path d="M.57.06A.468.468 0 0 0 .334 0c-.1 0-.18.032-.243.097A.355.355 0 0 0 0 .353C0 .46.034.55.103.619a.35.35 0 0 0 .26.105C.44.724.503.71.555.687V.596a.369.369 0 0 1-.201.053.251.251 0 0 1-.193-.08.296.296 0 0 1-.075-.21c0-.09.023-.159.07-.21a.245.245 0 0 1 .19-.075c.054 0 .101.01.141.032v.197H.334v.074h.235V.06z"/></symbol><use xlink:href="#aG" transform="matrix(8.295 0 0 -8.295 169.316 64.422)" fill-opacity=".851"/><use xlink:href="#aC" transform="matrix(8.295 0 0 -8.295 175.21 64.422)" fill-opacity=".851"/><use xlink:href="#p" transform="matrix(8.295 0 0 -8.295 179.702 64.422)" fill-opacity=".851"/><use xlink:href="#j" transform="matrix(8.295 0 0 -8.295 184.064 64.422)" fill-opacity=".851"/><use xlink:href="#j" transform="matrix(8.295 0 0 -8.295 187.581 64.422)" fill-opacity=".851"/><use xlink:href="#p" transform="matrix(8.295 0 0 -8.295 191.066 64.422)" fill-opacity=".851"/><use xlink:href="#j" transform="matrix(8.295 0 0 -8.295 195.428 64.422)" fill-opacity=".851"/></g></g><clipPath id="aH"><path transform="translate(-179 -23)" d="M398 81h25v7h-25z"/></clipPath><g clip-path="url(#aH)"><clipPath id="aI"><path transform="translate(-179 -23)" d="M183.43 72.711h362.125c.437 0 .789.351.789.789v43.844a.787.787 0 0 1-.789.789H183.43a.79.79 0 0 1-.793-.789V73.5a.79.79 0 0 1 .793-.789zm0 0"/></clipPath><g clip-path="url(#aI)"><symbol id="aJ"><path d="M.405.21A.203.203 0 0 0 .387.124a.19.19 0 0 0-.05-.066.232.232 0 0 0-.078-.043A.315.315 0 0 0 .16 0 .29.29 0 0 0 0 .038v.086A.255.255 0 0 1 .228.078c.02.006.037.015.05.026a.116.116 0 0 1 .034.043.13.13 0 0 1 .011.056C.323.295.258.34.128.34H.07v.068h.055c.115 0 .173.043.173.13 0 .079-.044.118-.132.118a.224.224 0 0 1-.14-.05v.078a.304.304 0 0 0 .24.028.182.182 0 0 0 .06-.034.16.16 0 0 0 .053-.12C.38.464.334.405.24.378V.377A.216.216 0 0 0 .306.36.172.172 0 0 0 .358.325.157.157 0 0 0 .405.21z"/></symbol><symbol id="aK"><path d="M.054 0a.053.053 0 0 0-.038.016A.053.053 0 0 0 0 .055C0 .07.005.083.016.093.026.104.039.11.054.11a.052.052 0 0 0 .04-.017.053.053 0 0 0 .015-.038.053.053 0 0 0-.016-.039A.053.053 0 0 0 .054 0z"/></symbol><symbol id="aL"><path d="M0 .207A.206.206 0 0 0 .074.36.197.197 0 0 0 .13.39a.209.209 0 0 0-.072.065.155.155 0 0 0-.027.088.172.172 0 0 0 .056.128.219.219 0 0 0 .14.05.22.22 0 0 0 .08-.013.194.194 0 0 0 .062-.037.169.169 0 0 0 .029-.216.211.211 0 0 0-.071-.065A.191.191 0 0 0 .42.315.197.197 0 0 0 .438.123.189.189 0 0 0 .39.057.214.214 0 0 0 .319.015.266.266 0 0 0 .227 0a.265.265 0 0 0-.091.015A.194.194 0 0 0 0 .206m.087.007a.17.17 0 0 1 .01-.059A.132.132 0 0 1 .125.11.13.13 0 0 1 .169.081a.166.166 0 0 1 .115 0 .13.13 0 0 1 .074.074.154.154 0 0 1-.028.158.134.134 0 0 1-.102.042.145.145 0 0 1-.101-.04.148.148 0 0 1-.04-.102m.025.325C.112.521.115.506.12.492A.126.126 0 0 1 .146.455.115.115 0 0 1 .273.43a.118.118 0 0 1 .061.061.117.117 0 0 1-.19.129A.11.11 0 0 1 .12.584.126.126 0 0 1 .112.538z"/></symbol><symbol id="aM"><path d="M.444.404A.7.7 0 0 0 .425.233.385.385 0 0 0 .37.106a.25.25 0 0 0-.09-.08A.261.261 0 0 0 .16 0a.288.288 0 0 0-.122.024v.077A.249.249 0 0 1 .162.068.176.176 0 0 1 .31.144C.327.17.34.2.35.238a.52.52 0 0 1 .013.125H.361C.331.302.28.272.205.272a.194.194 0 0 0-.19.13A.248.248 0 0 0 0 .49a.26.26 0 0 0 .017.095.211.211 0 0 0 .118.122.235.235 0 0 0 .183-.004.184.184 0 0 0 .07-.062.303.303 0 0 0 .042-.1.573.573 0 0 0 .014-.137M.358.476a.239.239 0 0 1-.01.074.172.172 0 0 1-.03.056.126.126 0 0 1-.153.039A.127.127 0 0 1 .12.612.156.156 0 0 1 .092.563a.21.21 0 0 1 0-.128.125.125 0 0 1 .073-.08.153.153 0 0 1 .11-.001.129.129 0 0 1 .083.123z"/></symbol><use xlink:href="#aJ" transform="matrix(8.295 0 0 -8.295 219.895 64.426)" fill-opacity=".851"/><use xlink:href="#aK" transform="matrix(8.295 0 0 -8.295 224.322 64.414)" fill-opacity=".851"/><use xlink:href="#aL" transform="matrix(8.295 0 0 -8.295 226.024 64.418)" fill-opacity=".851"/><use xlink:href="#aL" transform="matrix(8.295 0 0 -8.295 230.495 64.418)" fill-opacity=".851"/><use xlink:href="#p" transform="matrix(8.295 0 0 -8.295 234.99 64.422)" fill-opacity=".851"/><use xlink:href="#aM" transform="matrix(8.295 0 0 -8.295 239.312 64.426)" fill-opacity=".851"/></g></g><clipPath id="aN"><path transform="translate(-179 -23)" d="M443 81h40v9h-40z"/></clipPath><g clip-path="url(#aN)"><clipPath id="aO"><path transform="translate(-179 -23)" d="M183.43 72.711h362.125c.437 0 .789.351.789.789v43.844a.787.787 0 0 1-.789.789H183.43a.79.79 0 0 1-.793-.789V73.5a.79.79 0 0 1 .793-.789zm0 0"/></clipPath><g clip-path="url(#aO)"><symbol id="aP"><path d="M.082.265V0H0v.7h.192A.253.253 0 0 0 .366.646.195.195 0 0 0 .428.49.212.212 0 0 0 .36.328.261.261 0 0 0 .174.265H.082m0 .361V.339h.086c.057 0 .1.013.13.038.03.026.044.063.044.11C.342.58.288.626.178.626H.082z"/></symbol><symbol id="aQ"><path d="M.082.084H.08V.012H0v.74h.08V.424h.002c.04.066.097.1.173.1a.182.182 0 0 0 .15-.068.275.275 0 0 0 .055-.18.31.31 0 0 0-.061-.2A.203.203 0 0 0 .232 0a.164.164 0 0 0-.15.084M.08.286v-.07A.15.15 0 0 1 .12.11.135.135 0 0 1 .223.067c.048 0 .086.019.113.056a.254.254 0 0 1 .042.155c0 .055-.013.1-.039.13a.128.128 0 0 1-.104.048.142.142 0 0 1-.112-.049A.177.177 0 0 1 .08.286z"/></symbol><symbol id="aR"><path d="M.395.012h-.08V.09H.313A.168.168 0 0 0 .159 0a.165.165 0 0 0-.117.04A.137.137 0 0 0 0 .145c0 .093.055.147.165.163l.15.02C.315.415.28.457.212.457A.246.246 0 0 1 .049.395v.082a.31.31 0 0 0 .17.046C.336.523.395.461.395.337V.012m-.08.253L.195.248A.193.193 0 0 1 .11.22C.091.207.082.184.082.15c0-.024.009-.044.026-.06a.103.103 0 0 1 .07-.023c.04 0 .072.014.098.042a.15.15 0 0 1 .039.106v.05z"/></symbol><symbol id="aS"><path d="M.08 0H0v.74h.08V0z"/></symbol><symbol id="aT"><path d="M.292.016A.154.154 0 0 0 .217 0C.13 0 .086.049.086.146v.296H0v.069h.086v.122l.08.026V.51h.126V.442H.166V.161c0-.034.006-.058.017-.072C.194.075.213.067.24.067c.02 0 .037.006.052.017V.016z"/></symbol><symbol id="aU"><path d="m.472.735-.23-.58C.202.052.144 0 .07 0a.183.183 0 0 0-.052.006v.072A.148.148 0 0 1 .064.07c.04 0 .071.024.091.073l.04.094-.195.5h.089L.224.35a.778.778 0 0 0 .01-.038h.003l.01.037.142.385h.083z"/></symbol><use xlink:href="#aP" transform="matrix(8.295 0 0 -8.295 264.882 64.325)" fill-opacity=".851"/><use xlink:href="#m" transform="matrix(8.295 0 0 -8.295 269.438 64.325)" fill-opacity=".851"/><use xlink:href="#al" transform="matrix(8.295 0 0 -8.295 272.033 64.422)" fill-opacity=".851"/><use xlink:href="#aQ" transform="matrix(8.295 0 0 -8.295 277.17 64.422)" fill-opacity=".851"/><use xlink:href="#aR" transform="matrix(8.295 0 0 -8.295 281.73 64.422)" fill-opacity=".851"/><use xlink:href="#aQ" transform="matrix(8.295 0 0 -8.295 286.252 64.422)" fill-opacity=".851"/><use xlink:href="#aB" transform="matrix(8.295 0 0 -8.295 291.032 64.325)" fill-opacity=".851"/><use xlink:href="#aS" transform="matrix(8.295 0 0 -8.295 293.129 64.325)" fill-opacity=".851"/><use xlink:href="#aB" transform="matrix(8.295 0 0 -8.295 295.047 64.325)" fill-opacity=".851"/><use xlink:href="#aT" transform="matrix(8.295 0 0 -8.295 296.646 64.414)" fill-opacity=".851"/><use xlink:href="#aU" transform="matrix(8.295 0 0 -8.295 299.332 66.277)" fill-opacity=".851"/></g></g><clipPath id="aV"><path transform="translate(-179 -23)" d="M503 81h32v7h-32z"/></clipPath><g clip-path="url(#aV)"><clipPath id="aW"><path transform="translate(-179 -23)" d="M183.43 72.711h362.125c.437 0 .789.351.789.789v43.844a.787.787 0 0 1-.789.789H183.43a.79.79 0 0 1-.793-.789V73.5a.79.79 0 0 1 .793-.789zm0 0"/></clipPath><g clip-path="url(#aW)"><symbol id="aX"><path d="M.267 0H0v.063h.267V0z"/></symbol><symbol id="aY"><path d="M.242 0h-.08v.605A.436.436 0 0 0 .048.538.331.331 0 0 0 0 .522v.081A.478.478 0 0 1 .114.65a.769.769 0 0 1 .098.066h.03V0z"/></symbol><symbol id="aZ"><path d="M.324.517c0 .021-.004.04-.01.056a.108.108 0 0 1-.068.063.16.16 0 0 1-.097.002.23.23 0 0 1-.085-.045A.306.306 0 0 1 .027.56v.086a.237.237 0 0 0 .178.067.241.241 0 0 0 .08-.013A.166.166 0 0 0 .39.604a.197.197 0 0 0 .015-.08.27.27 0 0 0-.01-.076.223.223 0 0 0-.028-.063.299.299 0 0 0-.049-.057A.688.688 0 0 0 .25.272a2.704 2.704 0 0 1-.082-.06.368.368 0 0 1-.05-.047A.138.138 0 0 1 .09.122a.154.154 0 0 1-.008-.05h.35V0H0v.035c0 .03.003.056.01.079a.205.205 0 0 0 .032.065c.015.02.034.04.059.061.024.02.054.044.089.07a.545.545 0 0 1 .063.052.267.267 0 0 1 .042.05c.01.016.018.033.022.05a.213.213 0 0 1 .007.055z"/></symbol><use xlink:href="#aM" transform="matrix(8.295 0 0 -8.295 324.858 64.426)" fill-opacity=".851"/><use xlink:href="#aK" transform="matrix(8.295 0 0 -8.295 329.402 64.414)" fill-opacity=".851"/><use xlink:href="#l" transform="matrix(8.295 0 0 -8.295 331.088 64.426)" fill-opacity=".851"/><use xlink:href="#aJ" transform="matrix(8.295 0 0 -8.295 335.709 64.426)" fill-opacity=".851"/><use xlink:href="#p" transform="matrix(8.295 0 0 -8.295 340.07 64.422)" fill-opacity=".851"/><use xlink:href="#aX" transform="matrix(8.295 0 0 -8.295 344.595 62.275)" fill-opacity=".851"/><use xlink:href="#aY" transform="matrix(8.295 0 0 -8.295 348.245 64.325)" fill-opacity=".851"/><use xlink:href="#aZ" transform="matrix(8.295 0 0 -8.295 352.234 64.325)" fill-opacity=".851"/></g></g><clipPath id="ba"><path transform="translate(-179 -23)" d="M192 104h68v9h-68z"/></clipPath><g clip-path="url(#ba)"><clipPath id="bb"><path transform="translate(-179 -23)" d="M183.43 72.711h362.125c.437 0 .789.351.789.789v43.844a.787.787 0 0 1-.789.789H183.43a.79.79 0 0 1-.793-.789V73.5a.79.79 0 0 1 .793-.789zm0 0"/></clipPath><g clip-path="url(#bb)"><symbol id="bc"><path d="M0 0v.7h.193C.44.7.563.586.563.36A.344.344 0 0 0 .46.099.381.381 0 0 0 .186 0H0m.082.626V.074h.105C.278.074.35.1.4.148c.051.05.077.119.077.209 0 .18-.096.269-.287.269H.082z"/></symbol><symbol id="bd"><path d="M.415 0h-.08v.285c0 .106-.039.16-.116.16a.126.126 0 0 1-.1-.046A.167.167 0 0 1 .08.285V0H0v.5h.08V.417h.002a.18.18 0 0 0 .164.095C.301.512.343.494.372.458A.235.235 0 0 0 .415.306V0z"/></symbol><symbol id="be"><path d="M.46.275C.46.092.374 0 .198 0a.354.354 0 0 0-.162.035v.08A.333.333 0 0 1 .196.068c.123 0 .185.066.185.197v.054H.379A.187.187 0 0 0 .207.224a.189.189 0 0 0-.15.066A.268.268 0 0 0 0 .47c0 .084.02.152.061.202.041.05.097.075.168.075a.163.163 0 0 0 .15-.081H.38v.07h.08v-.46M.38.46v.074A.143.143 0 0 1 .24.68.139.139 0 0 1 .123.625a.24.24 0 0 1-.042-.15c0-.056.013-.1.04-.134A.131.131 0 0 1 .23.29c.045 0 .081.016.11.048A.178.178 0 0 1 .38.46z"/></symbol><symbol id="bf"><path d="M0 0z"/></symbol><use xlink:href="#bc" transform="matrix(8.295 0 0 -8.295 13.88 87.235)" fill-opacity=".851"/><use xlink:href="#aR" transform="matrix(8.295 0 0 -8.295 19.297 87.332)" fill-opacity=".851"/><use xlink:href="#bd" transform="matrix(8.295 0 0 -8.295 23.82 87.235)" fill-opacity=".851"/><use xlink:href="#be" transform="matrix(8.295 0 0 -8.295 28.222 89.187)" fill-opacity=".851"/><use xlink:href="#p" transform="matrix(8.295 0 0 -8.295 33.1 87.332)" fill-opacity=".851"/><use xlink:href="#m" transform="matrix(8.295 0 0 -8.295 37.713 87.235)" fill-opacity=".851"/><use xlink:href="#al" transform="matrix(8.295 0 0 -8.295 40.308 87.332)" fill-opacity=".851"/><use xlink:href="#aC" transform="matrix(8.295 0 0 -8.295 45.355 87.332)" fill-opacity=".851"/><use xlink:href="#j" transform="matrix(8.295 0 0 -8.295 49.88 87.332)" fill-opacity=".851"/><use xlink:href="#bf" transform="matrix(8.295 0 0 -8.295 52.976 87.235)" fill-opacity=".851"/><use xlink:href="#y" transform="matrix(8.295 0 0 -8.295 55.629 87.332)" fill-opacity=".851"/><use xlink:href="#x" transform="matrix(8.295 0 0 -8.295 59.736 87.235)" fill-opacity=".851"/><use xlink:href="#aC" transform="matrix(8.295 0 0 -8.295 64.31 87.332)" fill-opacity=".851"/><use xlink:href="#bd" transform="matrix(8.295 0 0 -8.295 69.085 87.235)" fill-opacity=".851"/><use xlink:href="#z" transform="matrix(8.295 0 0 -8.295 73.772 87.235)" fill-opacity=".851"/><use xlink:href="#j" transform="matrix(8.295 0 0 -8.295 77.643 87.332)" fill-opacity=".851"/></g></g><clipPath id="bg"><path transform="translate(-179 -23)" d="M281 104h21v7h-21z"/></clipPath><g clip-path="url(#bg)"><clipPath id="bh"><path transform="translate(-179 -23)" d="M183.43 72.711h362.125c.437 0 .789.351.789.789v43.844a.787.787 0 0 1-.789.789H183.43a.79.79 0 0 1-.793-.789V73.5a.79.79 0 0 1 .793-.789zm0 0"/></clipPath><g clip-path="url(#bh)" fill-opacity=".851"><use xlink:href="#o" transform="matrix(8.295 0 0 -8.295 102.929 87.235)"/><use xlink:href="#p" transform="matrix(8.295 0 0 -8.295 107.732 87.332)"/><use xlink:href="#q" transform="matrix(8.295 0 0 -8.295 111.73 87.235)"/><use xlink:href="#p" transform="matrix(8.295 0 0 -8.295 116.035 87.332)"/><use xlink:href="#m" transform="matrix(8.295 0 0 -8.295 120.649 87.235)"/></g></g></g></svg>